<svg width="550.8249877929687px" height="160.419921875px" xmlns="http://www.w3.org/2000/svg" viewBox="-25.412493896484364 -5.2099609375 550.8249877929687 160.419921875" style="background: rgb(31, 41, 55);" preserveAspectRatio="xMidYMid"><defs><filter id="editing-liquid" width="150%" height="160%" x="-25%" y="-25%"><feFlood flood-color="#a0d5ff" result="flood-1"></feFlood><feFlood flood-color="rgba(100%,100%,100%,0.34)" result="flood-2"></feFlood><feFlood flood-color="#0067ff" result="flood-3"></feFlood><feTurbulence baseFrequency="0.01" type="fractalNoise" numOctaves="1" seed="46" result="bs-1"></feTurbulence><feGaussianBlur stdDeviation="10" in="SourceAlpha" result="bs-2"></feGaussianBlur><feDisplacementMap scale="420" in="bs-2" in2="bs-1" result="bs-3"></feDisplacementMap><feComposite operator="in" in="flood-1" in2="bs-3" result="bs-4"></feComposite><feTurbulence baseFrequency="0.02" type="fractalNoise" numOctaves="2" seed="47" result="ms-1"></feTurbulence><feGaussianBlur in="SourceAlpha" stdDeviation="0.1" result="ms-2"></feGaussianBlur><feDisplacementMap in="ms-2" in2="ms-1" scale="35" result="ms-3"></feDisplacementMap><feComposite in="flood-3" in2="ms-3" operator="in" result="ms-4"></feComposite><feTurbulence baseFrequency="0.05" type="fractalNoise" numOctaves="1" seed="48" result="ts-1"></feTurbulence><feGaussianBlur stdDeviation="3.5" in="SourceAlpha" result="ts-2"></feGaussianBlur><feDisplacementMap scale="220" in="ts-2" in2="ts-1" result="ts-3"></feDisplacementMap><feComposite operator="in" in="flood-2" in2="ts-3" result="ts-4"></feComposite><feMerge result="le-1"><feMergeNode in="bs-4"></feMergeNode><feMergeNode in="ms-4"></feMergeNode><feMergeNode in="ts-4"></feMergeNode></feMerge><feColorMatrix type="matrix" in="le-1" result="le-2" values="0 0 0 0 0, 0 0 0 0 0, 0 0 0 0 0, 0 0 0 1 0"></feColorMatrix><feGaussianBlur stdDeviation="2" in="le-2" result="le-3"></feGaussianBlur><feSpecularLighting surfaceScale="5" specularConstant=".75" specularExponent="30" lighting-color="#white" in="le-3" result="le-4"><fePointLight x="-50" y="-100" z="400"></fePointLight></feSpecularLighting><feComposite operator="in" in="le-4" in2="le-2" result="le-5"></feComposite><feComposite operator="arithmetic" k1="0" k2="1" k3="1" k4="0" in="le-1" in2="le-5" result="le-6"></feComposite></filter></defs><g filter="url(#editing-liquid)"><g transform="translate(52.69499635696411, 98.69499969482422)"><path d="M24.31-31.46L24.31-31.46L24.31-31.46Q19.30-31.46 16.64-28.41L16.64-28.41L16.64-28.41Q13.97-25.35 13.97-19.76L13.97-19.76L13.97-19.76Q13.97-14.11 16.93-11.05L16.93-11.05L16.93-11.05Q19.89-8.00 24.89-8.00L24.89-8.00L24.89-8.00Q27.56-8.00 29.41-8.71L29.41-8.71L29.41-8.71Q31.27-9.43 32.95-10.34L32.95-10.34L32.95-10.34Q34.06-9.43 34.68-8.16L34.68-8.16L34.68-8.16Q35.30-6.89 35.30-5.20L35.30-5.20L35.30-5.20Q35.30-2.54 32.34-0.68L32.34-0.68L32.34-0.68Q29.38 1.17 23.34 1.17L23.34 1.17L23.34 1.17Q18.98 1.17 15.15-0.07L15.15-0.07L15.15-0.07Q11.31-1.30 8.45-3.87L8.45-3.87L8.45-3.87Q5.59-6.44 3.93-10.37L3.93-10.37L3.93-10.37Q2.27-14.30 2.27-19.76L2.27-19.76L2.27-19.76Q2.27-24.83 3.87-28.70L3.87-28.70L3.87-28.70Q5.46-32.56 8.22-35.23L8.22-35.23L8.22-35.23Q10.99-37.90 14.69-39.26L14.69-39.26L14.69-39.26Q18.39-40.63 22.62-40.63L22.62-40.63L22.62-40.63Q28.60-40.63 31.88-38.68L31.88-38.68L31.88-38.68Q35.16-36.73 35.16-33.67L35.16-33.67L35.16-33.67Q35.16-31.98 34.32-30.75L34.32-30.75L34.32-30.75Q33.48-29.51 32.37-28.80L32.37-28.80L32.37-28.80Q30.68-29.90 28.76-30.68L28.76-30.68L28.76-30.68Q26.85-31.46 24.31-31.46ZM71.69-19.76L71.69-0.07L71.69-0.07Q71.05 0.13 69.65 0.33L69.65 0.33L69.65 0.33Q68.25 0.52 66.75 0.52L66.75 0.52L66.75 0.52Q65.33 0.52 64.19 0.33L64.19 0.33L64.19 0.33Q63.05 0.13 62.27-0.46L62.27-0.46L62.27-0.46Q61.49-1.04 61.07-2.05L61.07-2.05L61.07-2.05Q60.65-3.06 60.65-4.68L60.65-4.68L60.65-19.11L60.65-19.11Q60.65-21.78 59.31-22.85L59.31-22.85L59.31-22.85Q57.98-23.92 56.03-23.92L56.03-23.92L56.03-23.92Q54.73-23.92 53.56-23.60L53.56-23.60L53.56-23.60Q52.39-23.27 51.68-22.82L51.68-22.82L51.68-0.07L51.68-0.07Q51.03 0.13 49.63 0.33L49.63 0.33L49.63 0.33Q48.23 0.52 46.73 0.52L46.73 0.52L46.73 0.52Q45.30 0.52 44.17 0.33L44.17 0.33L44.17 0.33Q43.03 0.13 42.25-0.46L42.25-0.46L42.25-0.46Q41.47-1.04 41.05-2.05L41.05-2.05L41.05-2.05Q40.63-3.06 40.63-4.68L40.63-4.68L40.63-42.38L40.63-42.38Q41.34-42.51 42.74-42.74L42.74-42.74L42.74-42.74Q44.14-42.97 45.57-42.97L45.57-42.97L45.57-42.97Q47.00-42.97 48.13-42.77L48.13-42.77L48.13-42.77Q49.27-42.58 50.05-41.99L50.05-41.99L50.05-41.99Q50.83-41.41 51.25-40.40L51.25-40.40L51.25-40.40Q51.68-39.39 51.68-37.77L51.68-37.77L51.68-31.39L51.68-31.39Q52.52-31.72 54.24-32.14L54.24-32.14L54.24-32.14Q55.97-32.56 58.05-32.56L58.05-32.56L58.05-32.56Q64.48-32.56 68.09-29.35L68.09-29.35L68.09-29.35Q71.69-26.13 71.69-19.76L71.69-19.76ZM95.22 1.04L95.22 1.04L95.22 1.04Q91.39 1.04 88.11-0.03L88.11-0.03L88.11-0.03Q84.83-1.10 82.39-3.25L82.39-3.25L82.39-3.25Q79.95-5.40 78.55-8.64L78.55-8.64L78.55-8.64Q77.16-11.89 77.16-16.25L77.16-16.25L77.16-16.25Q77.16-20.54 78.55-23.63L78.55-23.63L78.55-23.63Q79.95-26.71 82.22-28.70L82.22-28.70L82.22-28.70Q84.50-30.68 87.42-31.62L87.42-31.62L87.42-31.62Q90.35-32.56 93.41-32.56L93.41-32.56L93.41-32.56Q96.85-32.56 99.68-31.53L99.68-31.53L99.68-31.53Q102.50-30.48 104.55-28.67L104.55-28.67L104.55-28.67Q106.60-26.85 107.74-24.31L107.74-24.31L107.74-24.31Q108.88-21.78 108.88-18.79L108.88-18.79L108.88-18.79Q108.88-16.57 107.64-15.41L107.64-15.41L107.64-15.41Q106.41-14.24 104.19-13.91L104.19-13.91L88.14-11.51L88.14-11.51Q88.86-9.36 91.06-8.29L91.06-8.29L91.06-8.29Q93.28-7.21 96.14-7.21L96.14-7.21L96.14-7.21Q98.80-7.21 101.17-7.90L101.17-7.90L101.17-7.90Q103.55-8.58 105.04-9.49L105.04-9.49L105.04-9.49Q106.08-8.84 106.80-7.67L106.80-7.67L106.80-7.67Q107.51-6.50 107.51-5.20L107.51-5.20L107.51-5.20Q107.51-2.27 104.78-0.84L104.78-0.84L104.78-0.84Q102.70 0.26 100.10 0.65L100.10 0.65L100.10 0.65Q97.50 1.04 95.22 1.04ZM93.41-24.51L93.41-24.51L93.41-24.51Q91.84-24.51 90.71-23.98L90.71-23.98L90.71-23.98Q89.57-23.46 88.86-22.65L88.86-22.65L88.86-22.65Q88.14-21.84 87.78-20.83L87.78-20.83L87.78-20.83Q87.42-19.82 87.36-18.79L87.36-18.79L98.47-20.61L98.47-20.61Q98.28-21.91 97.05-23.21L97.05-23.21L97.05-23.21Q95.81-24.51 93.41-24.51ZM140.86-9.43L140.86-9.43L140.86-9.43Q140.86-4.49 137.15-1.69L137.15-1.69L137.15-1.69Q133.44 1.10 126.23 1.10L126.23 1.10L126.23 1.10Q123.50 1.10 121.16 0.72L121.16 0.72L121.16 0.72Q118.82 0.33 117.16-0.49L117.16-0.49L117.16-0.49Q115.50-1.30 114.56-2.54L114.56-2.54L114.56-2.54Q113.62-3.77 113.62-5.46L113.62-5.46L113.62-5.46Q113.62-7.02 114.27-8.09L114.27-8.09L114.27-8.09Q114.92-9.17 115.83-9.88L115.83-9.88L115.83-9.88Q117.72-8.84 120.15-8.03L120.15-8.03L120.15-8.03Q122.59-7.21 125.78-7.21L125.78-7.21L125.78-7.21Q127.79-7.21 128.86-7.80L128.86-7.80L128.86-7.80Q129.94-8.38 129.94-9.36L129.94-9.36L129.94-9.36Q129.94-10.27 129.16-10.79L129.16-10.79L129.16-10.79Q128.38-11.31 126.56-11.63L126.56-11.63L124.61-12.03L124.61-12.03Q118.95-13.13 116.19-15.50L116.19-15.50L116.19-15.50Q113.42-17.88 113.42-22.30L113.42-22.30L113.42-22.30Q113.42-24.70 114.47-26.65L114.47-26.65L114.47-26.65Q115.50-28.60 117.39-29.90L117.39-29.90L117.39-29.90Q119.28-31.20 121.91-31.92L121.91-31.92L121.91-31.92Q124.54-32.63 127.73-32.63L127.73-32.63L127.73-32.63Q130.13-32.63 132.24-32.27L132.24-32.27L132.24-32.27Q134.36-31.92 135.91-31.20L135.91-31.20L135.91-31.20Q137.47-30.48 138.38-29.35L138.38-29.35L138.38-29.35Q139.30-28.21 139.30-26.65L139.30-26.65L139.30-26.65Q139.30-25.16 138.74-24.08L138.74-24.08L138.74-24.08Q138.19-23.01 137.34-22.30L137.34-22.30L137.34-22.30Q136.82-22.62 135.78-22.98L135.78-22.98L135.78-22.98Q134.75-23.34 133.51-23.63L133.51-23.63L133.51-23.63Q132.28-23.92 131.01-24.12L131.01-24.12L131.01-24.12Q129.74-24.31 128.70-24.31L128.70-24.31L128.70-24.31Q126.56-24.31 125.39-23.82L125.39-23.82L125.39-23.82Q124.22-23.34 124.22-22.30L124.22-22.30L124.22-22.30Q124.22-21.58 124.87-21.13L124.87-21.13L124.87-21.13Q125.52-20.67 127.34-20.28L127.34-20.28L129.35-19.82L129.35-19.82Q135.59-18.39 138.22-15.89L138.22-15.89L138.22-15.89Q140.86-13.39 140.86-9.43ZM145.93-40.37L145.93-40.37L145.93-40.37Q145.93-42.84 147.58-44.52L147.58-44.52L147.58-44.52Q149.24-46.22 151.97-46.22L151.97-46.22L151.97-46.22Q154.70-46.22 156.36-44.52L156.36-44.52L156.36-44.52Q158.02-42.84 158.02-40.37L158.02-40.37L158.02-40.37Q158.02-37.90 156.36-36.20L156.36-36.20L156.36-36.20Q154.70-34.52 151.97-34.52L151.97-34.52L151.97-34.52Q149.24-34.52 147.58-36.20L147.58-36.20L147.58-36.20Q145.93-37.90 145.93-40.37ZM157.50-26.52L157.50-0.07L157.50-0.07Q156.78 0.07 155.38 0.29L155.38 0.29L155.38 0.29Q153.99 0.52 152.56 0.52L152.56 0.52L152.56 0.52Q151.13 0.52 149.99 0.33L149.99 0.33L149.99 0.33Q148.85 0.13 148.07-0.46L148.07-0.46L148.07-0.46Q147.29-1.04 146.87-2.05L146.87-2.05L146.87-2.05Q146.44-3.06 146.44-4.68L146.44-4.68L146.44-31.14L146.44-31.14Q147.16-31.27 148.56-31.49L148.56-31.49L148.56-31.49Q149.96-31.72 151.39-31.72L151.39-31.72L151.39-31.72Q152.81-31.72 153.95-31.53L153.95-31.53L153.95-31.53Q155.09-31.33 155.87-30.75L155.87-30.75L155.87-30.75Q156.65-30.16 157.07-29.15L157.07-29.15L157.07-29.15Q157.50-28.14 157.50-26.52L157.50-26.52ZM175.57-22.23L175.57-0.07L175.57-0.07Q174.92 0.13 173.52 0.33L173.52 0.33L173.52 0.33Q172.12 0.52 170.63 0.52L170.63 0.52L170.63 0.52Q169.20 0.52 168.06 0.33L168.06 0.33L168.06 0.33Q166.92 0.13 166.14-0.46L166.14-0.46L166.14-0.46Q165.36-1.04 164.94-2.05L164.94-2.05L164.94-2.05Q164.52-3.06 164.52-4.68L164.52-4.68L164.52-24.18L164.52-24.18Q164.52-25.68 165.07-26.75L165.07-26.75L165.07-26.75Q165.62-27.82 166.66-28.67L166.66-28.67L166.66-28.67Q167.70-29.51 169.23-30.19L169.23-30.19L169.23-30.19Q170.76-30.88 172.51-31.39L172.51-31.39L172.51-31.39Q174.27-31.92 176.15-32.21L176.15-32.21L176.15-32.21Q178.04-32.50 179.92-32.50L179.92-32.50L179.92-32.50Q183.04-32.50 184.86-31.30L184.86-31.30L184.86-31.30Q186.68-30.10 186.68-27.37L186.68-27.37L186.68-27.37Q186.68-26.46 186.42-25.58L186.42-25.58L186.42-25.58Q186.16-24.70 185.77-23.98L185.77-23.98L185.77-23.98Q184.41-23.98 182.98-23.86L182.98-23.86L182.98-23.86Q181.55-23.73 180.18-23.46L180.18-23.46L180.18-23.46Q178.82-23.21 177.61-22.91L177.61-22.91L177.61-22.91Q176.41-22.62 175.57-22.23L175.57-22.23ZM207.94 1.04L207.94 1.04L207.94 1.04Q204.10 1.04 200.82-0.03L200.82-0.03L200.82-0.03Q197.54-1.10 195.10-3.25L195.10-3.25L195.10-3.25Q192.66-5.40 191.26-8.64L191.26-8.64L191.26-8.64Q189.87-11.89 189.87-16.25L189.87-16.25L189.87-16.25Q189.87-20.54 191.26-23.63L191.26-23.63L191.26-23.63Q192.66-26.71 194.94-28.70L194.94-28.70L194.94-28.70Q197.21-30.68 200.14-31.62L200.14-31.62L200.14-31.62Q203.06-32.56 206.12-32.56L206.12-32.56L206.12-32.56Q209.56-32.56 212.39-31.53L212.39-31.53L212.39-31.53Q215.22-30.48 217.26-28.67L217.26-28.67L217.26-28.67Q219.31-26.85 220.45-24.31L220.45-24.31L220.45-24.31Q221.59-21.78 221.59-18.79L221.59-18.79L221.59-18.79Q221.59-16.57 220.35-15.41L220.35-15.41L220.35-15.41Q219.12-14.24 216.91-13.91L216.91-13.91L200.85-11.51L200.85-11.51Q201.57-9.36 203.78-8.29L203.78-8.29L203.78-8.29Q205.99-7.21 208.85-7.21L208.85-7.21L208.85-7.21Q211.51-7.21 213.88-7.90L213.88-7.90L213.88-7.90Q216.26-8.58 217.75-9.49L217.75-9.49L217.75-9.49Q218.79-8.84 219.51-7.67L219.51-7.67L219.51-7.67Q220.22-6.50 220.22-5.20L220.22-5.20L220.22-5.20Q220.22-2.27 217.49-0.84L217.49-0.84L217.49-0.84Q215.41 0.26 212.81 0.65L212.81 0.65L212.81 0.65Q210.21 1.04 207.94 1.04ZM206.12-24.51L206.12-24.51L206.12-24.51Q204.56-24.51 203.42-23.98L203.42-23.98L203.42-23.98Q202.28-23.46 201.57-22.65L201.57-22.65L201.57-22.65Q200.85-21.84 200.49-20.83L200.49-20.83L200.49-20.83Q200.14-19.82 200.07-18.79L200.07-18.79L211.19-20.61L211.19-20.61Q210.99-21.91 209.76-23.21L209.76-23.21L209.76-23.21Q208.52-24.51 206.12-24.51ZM248.69-30.29L238.94-30.29L238.94-30.29Q238.49-31.01 238.10-32.24L238.10-32.24L238.10-32.24Q237.71-33.48 237.71-34.84L237.71-34.84L237.71-34.84Q237.71-37.38 238.84-38.48L238.84-38.48L238.84-38.48Q239.98-39.59 241.80-39.59L241.80-39.59L270.14-39.59L270.14-39.59Q270.60-38.87 270.99-37.63L270.99-37.63L270.99-37.63Q271.38-36.40 271.38-35.04L271.38-35.04L271.38-35.04Q271.38-32.50 270.24-31.39L270.24-31.39L270.24-31.39Q269.10-30.29 267.28-30.29L267.28-30.29L260.07-30.29L260.07-0.26L260.07-0.26Q259.35-0.07 257.82 0.13L257.82 0.13L257.82 0.13Q256.30 0.33 254.80 0.33L254.80 0.33L254.80 0.33Q253.31 0.33 252.17 0.10L252.17 0.10L252.17 0.10Q251.03-0.13 250.25-0.72L250.25-0.72L250.25-0.72Q249.47-1.30 249.08-2.34L249.08-2.34L249.08-2.34Q248.69-3.38 248.69-5.07L248.69-5.07L248.69-30.29ZM289.57-7.02L289.57-7.02L289.57-7.02Q290.68-7.02 292.01-7.25L292.01-7.25L292.01-7.25Q293.35-7.48 294.00-7.87L294.00-7.87L294.00-13.07L289.31-12.68L289.31-12.68Q287.50-12.54 286.32-11.89L286.32-11.89L286.32-11.89Q285.16-11.25 285.16-9.95L285.16-9.95L285.16-9.95Q285.16-8.64 286.16-7.83L286.16-7.83L286.16-7.83Q287.17-7.02 289.57-7.02ZM289.06-32.56L289.06-32.56L289.06-32.56Q292.56-32.56 295.46-31.85L295.46-31.85L295.46-31.85Q298.35-31.14 300.40-29.67L300.40-29.67L300.40-29.67Q302.44-28.21 303.55-25.97L303.55-25.97L303.55-25.97Q304.66-23.73 304.66-20.67L304.66-20.67L304.66-6.11L304.66-6.11Q304.66-4.42 303.71-3.35L303.71-3.35L303.71-3.35Q302.77-2.27 301.47-1.50L301.47-1.50L301.47-1.50Q297.25 1.04 289.57 1.04L289.57 1.04L289.57 1.04Q286.13 1.04 283.37 0.39L283.37 0.39L283.37 0.39Q280.61-0.26 278.62-1.56L278.62-1.56L278.62-1.56Q276.64-2.86 275.57-4.88L275.57-4.88L275.57-4.88Q274.50-6.89 274.50-9.55L274.50-9.55L274.50-9.55Q274.50-14.04 277.16-16.45L277.16-16.45L277.16-16.45Q279.82-18.85 285.42-19.44L285.42-19.44L293.93-20.35L293.93-20.80L293.93-20.80Q293.93-22.69 292.27-23.50L292.27-23.50L292.27-23.50Q290.62-24.31 287.50-24.31L287.50-24.31L287.50-24.31Q285.03-24.31 282.69-23.79L282.69-23.79L282.69-23.79Q280.35-23.27 278.46-22.49L278.46-22.49L278.46-22.49Q277.62-23.07 277.03-24.28L277.03-24.28L277.03-24.28Q276.44-25.48 276.44-26.78L276.44-26.78L276.44-26.78Q276.44-28.47 277.26-29.48L277.26-29.48L277.26-29.48Q278.07-30.48 279.76-31.20L279.76-31.20L279.76-31.20Q281.65-31.92 284.21-32.24L284.21-32.24L284.21-32.24Q286.78-32.56 289.06-32.56ZM322.66-37.77L322.66-0.07L322.66-0.07Q321.95 0.07 320.55 0.29L320.55 0.29L320.55 0.29Q319.15 0.52 317.72 0.52L317.72 0.52L317.72 0.52Q316.29 0.52 315.15 0.33L315.15 0.33L315.15 0.33Q314.02 0.13 313.24-0.46L313.24-0.46L313.24-0.46Q312.46-1.04 312.03-2.05L312.03-2.05L312.03-2.05Q311.61-3.06 311.61-4.68L311.61-4.68L311.61-42.38L311.61-42.38Q312.33-42.51 313.72-42.74L313.72-42.74L313.72-42.74Q315.12-42.97 316.55-42.97L316.55-42.97L316.55-42.97Q317.98-42.97 319.12-42.77L319.12-42.77L319.12-42.77Q320.26-42.58 321.04-41.99L321.04-41.99L321.04-41.99Q321.82-41.41 322.24-40.40L322.24-40.40L322.24-40.40Q322.66-39.39 322.66-37.77L322.66-37.77ZM350.09-16.12L360.49-5.72L360.49-5.72Q360.17-2.67 358.70-1.04L358.70-1.04L358.70-1.04Q357.24 0.58 354.44 0.58L354.44 0.58L354.44 0.58Q352.37 0.58 350.74-0.42L350.74-0.42L350.74-0.42Q349.12-1.43 347.23-3.83L347.23-3.83L340.80-11.89L340.80-0.07L340.80-0.07Q340.08 0.07 338.68 0.29L338.68 0.29L338.68 0.29Q337.29 0.52 335.86 0.52L335.86 0.52L335.86 0.52Q334.43 0.52 333.29 0.33L333.29 0.33L333.29 0.33Q332.15 0.13 331.37-0.46L331.37-0.46L331.37-0.46Q330.59-1.04 330.17-2.05L330.17-2.05L330.17-2.05Q329.75-3.06 329.75-4.68L329.75-4.68L329.75-42.32L329.75-42.32Q330.46-42.51 331.86-42.74L331.86-42.74L331.86-42.74Q333.25-42.97 334.69-42.97L334.69-42.97L334.69-42.97Q336.12-42.97 337.25-42.77L337.25-42.77L337.25-42.77Q338.39-42.58 339.17-41.99L339.17-41.99L339.17-41.99Q339.95-41.41 340.37-40.40L340.37-40.40L340.37-40.40Q340.80-39.39 340.80-37.77L340.80-37.77L340.80-20.61L351.98-32.05L351.98-32.05Q355.36-32.05 357.40-30.55L357.40-30.55L357.40-30.55Q359.45-29.05 359.45-26.78L359.45-26.78L359.45-26.78Q359.45-25.80 359.13-24.99L359.13-24.99L359.13-24.99Q358.80-24.18 358.12-23.34L358.12-23.34L358.12-23.34Q357.44-22.49 356.36-21.55L356.36-21.55L356.36-21.55Q355.29-20.61 353.86-19.37L353.86-19.37L350.09-16.12ZM392.34-9.43L392.34-9.43L392.34-9.43Q392.34-4.49 388.63-1.69L388.63-1.69L388.63-1.69Q384.93 1.10 377.72 1.10L377.72 1.10L377.72 1.10Q374.99 1.10 372.64 0.72L372.64 0.72L372.64 0.72Q370.31 0.33 368.65-0.49L368.65-0.49L368.65-0.49Q366.99-1.30 366.05-2.54L366.05-2.54L366.05-2.54Q365.11-3.77 365.11-5.46L365.11-5.46L365.11-5.46Q365.11-7.02 365.75-8.09L365.75-8.09L365.75-8.09Q366.41-9.17 367.31-9.88L367.31-9.88L367.31-9.88Q369.20-8.84 371.64-8.03L371.64-8.03L371.64-8.03Q374.07-7.21 377.26-7.21L377.26-7.21L377.26-7.21Q379.27-7.21 380.35-7.80L380.35-7.80L380.35-7.80Q381.42-8.38 381.42-9.36L381.42-9.36L381.42-9.36Q381.42-10.27 380.64-10.79L380.64-10.79L380.64-10.79Q379.86-11.31 378.04-11.63L378.04-11.63L376.09-12.03L376.09-12.03Q370.44-13.13 367.67-15.50L367.67-15.50L367.67-15.50Q364.91-17.88 364.91-22.30L364.91-22.30L364.91-22.30Q364.91-24.70 365.95-26.65L365.95-26.65L365.95-26.65Q366.99-28.60 368.88-29.90L368.88-29.90L368.88-29.90Q370.76-31.20 373.39-31.92L373.39-31.92L373.39-31.92Q376.02-32.63 379.21-32.63L379.21-32.63L379.21-32.63Q381.62-32.63 383.73-32.27L383.73-32.27L383.73-32.27Q385.84-31.92 387.40-31.20L387.40-31.20L387.40-31.20Q388.96-30.48 389.87-29.35L389.87-29.35L389.87-29.35Q390.78-28.21 390.78-26.65L390.78-26.65L390.78-26.65Q390.78-25.16 390.23-24.08L390.23-24.08L390.23-24.08Q389.68-23.01 388.83-22.30L388.83-22.30L388.83-22.30Q388.31-22.62 387.27-22.98L387.27-22.98L387.27-22.98Q386.23-23.34 385.00-23.63L385.00-23.63L385.00-23.63Q383.76-23.92 382.49-24.12L382.49-24.12L382.49-24.12Q381.23-24.31 380.19-24.31L380.19-24.31L380.19-24.31Q378.04-24.31 376.87-23.82L376.87-23.82L376.87-23.82Q375.70-23.34 375.70-22.30L375.70-22.30L375.70-22.30Q375.70-21.58 376.35-21.13L376.35-21.13L376.35-21.13Q377-20.67 378.82-20.28L378.82-20.28L380.83-19.82L380.83-19.82Q387.07-18.39 389.71-15.89L389.71-15.89L389.71-15.89Q392.34-13.39 392.34-9.43Z" fill="#444"></path></g></g><style>text {
  font-size: 64px;
  font-family: Arial Black;
  dominant-baseline: central;
  text-anchor: middle;
}</style></svg>